HIERARCHY
ROOT Hips
{
  OFFSET 55.5121 94.0392 24.1989
  CHANNELS 6 Xposition Yposition Zposition Zrotation Xrotation Yrotation
  JOINT spine
  {
    OFFSET 0 7.4756 0.429885
    CHANNELS 3 Zrotation Xrotation Yrotation
    JOINT spine1
    {
      OFFSET 0 9.92301 0
      CHANNELS 3 Zrotation Xrotation Yrotation
      JOINT spine2
      {
        OFFSET 0 9.50804 0
        CHANNELS 3 Zrotation Xrotation Yrotation
        JOINT Neck
        {
          OFFSET 0 24.4111 1.16384
          CHANNELS 3 Zrotation Xrotation Yrotation
          JOINT Head
          {
            OFFSET 0 7.37523 0
            CHANNELS 3 Zrotation Xrotation Yrotation
            End Site
            {
              OFFSET 0 17.8522 -5.88741
            }
          }
        }
        JOINT RightShoulder
        {
          OFFSET -4.00356 10.2679 -0.557468
          CHANNELS 3 Zrotation Xrotation Yrotation
          JOINT RightArm
          {
            OFFSET 0 13.4673 0
            CHANNELS 3 Zrotation Xrotation Yrotation
            JOINT RightArmRoll
            {
              OFFSET 0 6.79858 0
              CHANNELS 3 Zrotation Xrotation Yrotation
              JOINT RightForeArm
              {
                OFFSET 0 19.8018 0
                CHANNELS 3 Zrotation Xrotation Yrotation
                JOINT RightForeArmRoll
                {
                  OFFSET 0 7.62905 0
                  CHANNELS 3 Zrotation Xrotation Yrotation
                  JOINT RightHand
                  {
                    OFFSET 0 15.3098 0
                    CHANNELS 3 Zrotation Xrotation Yrotation
                    End Site
                    {
                      OFFSET 0 0 0
                    }
                  }
                }
              }
            }
          }
        }
        JOINT LeftShoulder
        {
          OFFSET 4.00356 10.2679 -0.557468
          CHANNELS 3 Zrotation Xrotation Yrotation
          JOINT LeftArm
          {
            OFFSET 0 13.4673 0
            CHANNELS 3 Zrotation Xrotation Yrotation
            JOINT LeftArmRoll
            {
              OFFSET 0 6.79858 0
              CHANNELS 3 Zrotation Xrotation Yrotation
              JOINT LeftForeArm
              {
                OFFSET 0 19.8018 0
                CHANNELS 3 Zrotation Xrotation Yrotation
                JOINT LeftForeArmRoll
                {
                  OFFSET 0 7.62905 0
                  CHANNELS 3 Zrotation Xrotation Yrotation
                  JOINT LeftHand
                  {
                    OFFSET 0 15.3098 0
                    CHANNELS 3 Zrotation Xrotation Yrotation
                    End Site
                    {
                      OFFSET 0 0 0
                    }
                  }
                }
              }
            }
          }
        }
      }
    }
  }
  JOINT RightUpLeg
  {
    OFFSET -6.62609 -1.21505 -1.01927
    CHANNELS 3 Zrotation Xrotation Yrotation
    JOINT RightUpLegRoll
    {
      OFFSET 0 17.9517 0
      CHANNELS 3 Zrotation Xrotation Yrotation
      JOINT RightLeg
      {
        OFFSET 0 -22.2304 0
        CHANNELS 3 Zrotation Xrotation Yrotation
        JOINT RightLegRoll
        {
          OFFSET 0 22.3032 0
          CHANNELS 3 Zrotation Xrotation Yrotation
          JOINT RightFoot
          {
            OFFSET 0 18.5636 0
            CHANNELS 3 Zrotation Xrotation Yrotation
            JOINT RightToeBase
            {
              OFFSET 0 15.5183 0
              CHANNELS 3 Zrotation Xrotation Yrotation
              End Site
              {
                OFFSET 0.00657761 7.51538 -0.866263
              }
            }
          }
        }
      }
    }
  }
  JOINT LeftUpLeg
  {
    OFFSET 6.62609 -1.21505 -1.01927
    CHANNELS 3 Zrotation Xrotation Yrotation
    JOINT LeftUpLegRoll
    {
      OFFSET 0 17.9518 0
      CHANNELS 3 Zrotation Xrotation Yrotation
      JOINT LeftLeg
      {
        OFFSET 0 22.2303 0
        CHANNELS 3 Zrotation Xrotation Yrotation
        JOINT LeftLegRoll
        {
          OFFSET 0 22.5093 0
          CHANNELS 3 Zrotation Xrotation Yrotation
          JOINT LeftFoot
          {
            OFFSET 0 18.3575 0
            CHANNELS 3 Zrotation Xrotation Yrotation
            JOINT LeftToeBase
            {
              OFFSET 0 15.5183 0
              CHANNELS 3 Zrotation Xrotation Yrotation
              End Site
              {
                OFFSET -0.029478 7.51538 -0.866263
              }
            }
          }
        }
      }
    }
  }
}
MOTION
Frames: 13
Frame Time: 0.00208333
54.3341 81.0009 2.42644 -3.44115 11.5983 2.4831 -0.191005 0.517833 -0.313181 -0.378056 5.03948 -0.602779 -0.371473 6.68449 -0.597214 4.94416 -27.5651 -0.192454 0.951486 10.6586 -0.688489 80.0054 -1.74731 -3.08307 93.7962 34.5696 18.8294 -7.88026e-008 3.279e-007 -9.93793e-007 4.98043 0.0377572 -1.24488 2.37241e-006 7.10583e-006 -3.04426 8.02962 -4.95143 0.697654 -62.7372 -10.2538 6.38484 -115.079 32.1176 -10.7668 2.44073e-006 1.50515e-006 -2.52269e-006 1.10989 0.532311 0.831902 -5.01597e-006 -4.52536e-006 3.00514 -8.03016 -4.95141 -0.697632 -174.021 52.7098 -0.842011 180 1.52542e-005 178.595 172.201 57.3925 -177.774 -2.90724e-006 -8.30022e-006 1.35918 -34.793 74.3068 28.7969 8.46748 29.9968 -3.66552 -179.244 55.1629 -0.168024 4.57705e-006 1.05463e-005 -1.16478 0.954104 -59.2572 2.91464 -2.32998e-006 -5.42651e-006 -1.47556 27.931 74.2714 -27.3242 -8.45502 29.7961 3.63287 
54.352 81.1873 2.56166 -3.40734 11.5333 2.49324 -0.188966 0.49066 -0.309092 -0.374132 4.98511 -0.594234 -0.36764 6.63012 -0.588717 4.73555 -27.2697 -0.274477 1.02504 10.5838 -0.734393 79.9107 -1.76291 -3.08088 93.8587 34.4552 18.8138 -7.88026e-008 3.279e-007 -9.93793e-007 4.98638 0.0379824 -1.24406 2.37241e-006 7.10583e-006 -3.0442 8.02962 -4.95143 0.697654 -62.8145 -10.203 6.35518 -114.984 32.0378 -10.8069 2.44073e-006 1.50515e-006 -2.52269e-006 1.05337 0.520179 0.832235 -5.01597e-006 -4.52536e-006 3.00512 -8.03016 -4.95141 -0.697632 -174.065 52.3302 -0.894652 180 1.52542e-005 178.601 172.259 57.0224 -177.816 -2.90724e-006 -8.30022e-006 1.34565 -34.5973 74.2401 28.6437 8.46953 30.0212 -3.66646 -179.297 54.783 -0.0743858 4.57705e-006 1.05463e-005 -1.16202 0.867565 -58.8903 2.84018 -2.32998e-006 -5.42651e-006 -1.45996 27.7572 74.176 -27.1544 -8.45916 29.8475 3.63497 
54.3618 81.3473 2.6896 -3.37335 11.4647 2.5047 -0.187108 0.463781 -0.30492 -0.37052 4.93132 -0.585566 -0.364121 6.57634 -0.580092 4.53074 -26.9681 -0.355164 1.09831 10.508 -0.780337 79.8192 -1.77892 -3.07914 93.917 34.3397 18.7987 -7.88026e-008 3.279e-007 -9.93793e-007 4.99343 0.0382055 -1.24323 2.37241e-006 7.10583e-006 -3.04413 8.02962 -4.95143 0.697654 -62.8896 -10.1538 6.3265 -114.893 31.958 -10.8452 2.44073e-006 1.50515e-006 -2.52269e-006 0.998036 0.508178 0.832533 -5.01597e-006 -4.52536e-006 3.0051 -8.03016 -4.95141 -0.697632 -174.111 51.9463 -0.944153 180 1.52543e-005 178.608 172.317 56.651 -177.858 -2.90724e-006 -8.30022e-006 1.33223 -34.4044 74.1733 28.4925 8.47156 30.0451 -3.66739 -179.352 54.3981 0.0195235 4.57705e-006 1.05463e-005 -1.15934 0.783457 -58.5208 2.76776 -2.32998e-006 -5.42651e-006 -1.44441 27.588 74.0815 -26.9884 -8.46311 29.8966 3.63705 
54.3738 81.5151 2.8287 -3.33927 11.3924 2.51755 -0.18549 0.437265 -0.300675 -0.367335 4.87827 -0.576802 -0.361031 6.52328 -0.571364 4.33098 -26.6607 -0.43418 1.17109 10.4318 -0.826233 79.7319 -1.79521 -3.07792 93.9702 34.2232 18.7843 -7.88026e-008 3.279e-007 -9.93793e-007 5.00179 0.0384196 -1.24237 2.37241e-006 7.10583e-006 -3.04406 8.02962 -4.95143 0.697654 -62.9621 -10.1067 6.29914 -114.805 31.8785 -10.8812 2.44073e-006 1.50515e-006 -2.52269e-006 0.944482 0.496398 0.832789 -5.01597e-006 -4.52536e-006 3.00508 -8.03016 -4.95141 -0.697632 -174.158 51.5576 -0.990022 180 1.52543e-005 178.614 172.373 56.2784 -177.899 -2.90724e-006 -8.30022e-006 1.3189 -34.2154 74.1069 28.3441 8.4735 30.0681 -3.66828 -179.408 54.008 0.11338 4.57705e-006 1.05463e-005 -1.15675 0.701479 -58.1485 2.69713 -2.32998e-006 -5.42651e-006 -1.42891 27.4245 73.9883 -26.8272 -8.46683 29.9427 3.63911 
54.3875 81.6828 2.95978 -3.30515 11.3162 2.53187 -0.184173 0.411178 -0.296362 -0.364689 4.82607 -0.567966 -0.358482 6.47109 -0.562556 4.13746 -26.3479 -0.511195 1.24317 10.3557 -0.871993 79.65 -1.81168 -3.07727 94.0172 34.1058 18.7708 -7.88026e-008 3.279e-007 -9.93793e-007 5.01166 0.0386176 -1.24147 2.37241e-006 7.10583e-006 -3.04398 8.02962 -4.95143 0.697654 -63.0317 -10.0623 6.27343 -114.723 31.7993 -10.9147 2.44073e-006 1.50515e-006 -2.52269e-006 0.893313 0.484925 0.832995 -5.01597e-006 -4.52536e-006 3.00507 -8.03016 -4.95141 -0.697632 -174.208 51.1638 -1.03178 180 1.52544e-005 178.62 172.427 55.9042 -177.938 -2.90724e-006 -8.30022e-006 1.30564 -34.0316 74.0412 28.1992 8.47534 30.0898 -3.66911 -179.464 53.6121 0.206871 4.57705e-006 1.05463e-005 -1.15426 0.62134 -57.773 2.62804 -2.32998e-006 -5.42651e-006 -1.41348 27.2678 73.8971 -26.6716 -8.47024 29.9851 3.64111 
54.4085 81.8675 3.07042 -3.27106 11.2358 2.54773 -0.183216 0.385591 -0.291989 -0.362697 4.77488 -0.559087 -0.356588 6.41989 -0.553693 3.95139 -26.0299 -0.585883 1.31436 10.2803 -0.917529 79.5748 -1.82822 -3.07725 94.057 33.9876 18.7585 -7.88026e-008 3.279e-007 -9.93793e-007 5.02326 0.0387924 -1.24051 2.37241e-006 7.10583e-006 -3.0439 8.02962 -4.95143 0.697654 -63.0978 -10.0212 6.2497 -114.645 31.7207 -10.9455 2.44073e-006 1.50515e-006 -2.52269e-006 0.845128 0.473848 0.833142 -5.01597e-006 -4.52536e-006 3.00505 -8.03016 -4.95141 -0.697632 -174.259 50.7645 -1.06898 180 1.52544e-005 178.626 172.479 55.5282 -177.976 -2.90724e-006 -8.30022e-006 1.29246 -33.8543 73.9765 28.0585 8.47703 30.1096 -3.66986 -179.521 53.2103 0.29969 4.57705e-006 1.05463e-005 -1.15188 0.542764 -57.3942 2.56028 -2.32998e-006 -5.42651e-006 -1.39811 27.1188 73.8084 -26.5224 -8.47329 30.0232 3.64303 
54.4184 82.0285 3.20508 -3.23666 11.1509 2.56516 -0.182628 0.360393 -0.287453 -0.361337 4.72446 -0.549938 -0.355332 6.36948 -0.54455 3.77163 -25.7055 -0.659458 1.38396 10.2055 -0.963518 79.5062 -1.84521 -3.07801 94.0886 33.8687 18.7482 -7.88026e-008 3.279e-007 -9.93793e-007 5.03617 0.0389605 -1.23962 2.37241e-006 7.10583e-006 -3.04382 8.02962 -4.95143 0.697654 -63.1589 -9.98404 6.22825 -114.576 31.6436 -10.9721 2.44073e-006 1.50515e-006 -2.52269e-006 0.799702 0.461133 0.833209 -5.01597e-006 -4.52536e-006 3.00503 -8.03016 -4.95141 -0.697632 -174.311 50.3585 -1.10305 180 1.52544e-005 178.632 172.531 55.1488 -178.013 -2.90724e-006 -8.30022e-006 1.27947 -33.6822 73.9115 27.9197 8.47854 30.1299 -3.66855 -179.58 52.802 0.39358 4.57705e-006 1.05463e-005 -1.14959 0.46641 -57.0118 2.49435 -2.32998e-006 -5.42651e-006 -1.38276 26.9743 73.7206 -26.3768 -8.47613 30.0586 3.64502 
54.434 82.2063 3.3586 -3.20159 11.0617 2.58408 -0.182345 0.335424 -0.282668 -0.360463 4.6745 -0.540325 -0.354567 6.31952 -0.534934 3.59598 -25.3732 -0.733185 1.45171 10.1308 -1.01056 79.443 -1.86307 -3.07957 94.1124 33.749 18.7404 -7.88026e-008 3.279e-007 -9.93793e-007 5.04983 0.039142 -1.23891 2.37241e-006 7.10583e-006 -3.04374 8.02962 -4.95143 0.697654 -63.214 -9.95053 6.2089 -114.515 31.5684 -10.994 2.44073e-006 1.50515e-006 -2.52269e-006 0.756174 0.445188 0.833189 -5.01597e-006 -4.52536e-006 3.00501 -8.03016 -4.95141 -0.697632 -174.364 49.9454 -1.13567 180 1.52545e-005 178.637 172.585 54.7649 -178.051 -2.90724e-006 -8.30022e-006 1.26676 -33.513 73.8451 27.7802 8.47992 30.1525 -3.66374 -179.642 52.3874 0.490087 4.57705e-006 1.05463e-005 -1.14738 0.393006 -56.6259 2.43082 -2.32998e-006 -5.42651e-006 -1.36736 26.8306 73.6322 -26.2318 -8.47891 30.0931 3.64718 
54.4412 82.3684 3.48019 -3.16592 10.9684 2.60442 -0.182319 0.310679 -0.277672 -0.359998 4.62499 -0.530318 -0.354217 6.27001 -0.524918 3.42403 -25.0333 -0.80683 1.51804 10.0558 -1.05844 79.3845 -1.88173 -3.08185 94.1297 33.6284 18.7345 -7.88026e-008 3.279e-007 -9.93793e-007 5.06425 0.0393355 -1.23833 2.37241e-006 7.10583e-006 -3.04365 8.02962 -4.95143 0.697654 -63.264 -9.92005 6.19128 -114.461 31.4946 -11.0119 2.44073e-006 1.50515e-006 -2.52269e-006 0.714193 0.426762 0.833095 -5.01597e-006 -4.52536e-006 3.00499 -8.03016 -4.95141 -0.697632 -174.418 49.5259 -1.16674 180 1.52545e-005 178.643 172.639 54.3775 -178.089 -2.90724e-006 -8.30022e-006 1.25431 -33.3464 73.7774 27.6403 8.48118 30.1771 -3.65623 -179.705 51.967 0.588638 4.57705e-006 1.05463e-005 -1.14526 0.322389 -56.2369 2.36956 -2.32998e-006 -5.42651e-006 -1.35193 26.688 73.5432 -26.0877 -8.48162 30.1266 3.64949 
54.4849 82.5425 3.6335 -3.12973 10.8713 2.62613 -0.182503 0.286151 -0.2725 -0.359867 4.57592 -0.519989 -0.354206 6.22094 -0.514573 3.25537 -24.686 -0.88016 1.58335 9.9801 -1.10696 79.3296 -1.90112 -3.08473 94.1416 33.5069 18.73 -7.88026e-008 3.279e-007 -9.93793e-007 5.07945 0.0395396 -1.23784 2.37241e-006 7.10583e-006 -3.04357 8.02962 -4.95143 0.697654 -63.3101 -9.89193 6.17503 -114.413 31.4217 -11.0267 2.44073e-006 1.50515e-006 -2.52269e-006 0.673408 0.406604 0.832944 -5.01597e-006 -4.52536e-006 3.00497 -8.03016 -4.95141 -0.697632 -174.471 49.1008 -1.19619 180 1.52545e-005 178.648 172.696 53.9873 -178.128 -2.90724e-006 -8.30022e-006 1.24207 -33.1819 73.7087 27.5004 8.48236 30.203 -3.64684 -179.77 51.5411 0.688682 4.57705e-006 1.05463e-005 -1.14322 0.2544 -55.845 2.31043 -2.32998e-006 -5.42651e-006 -1.33649 26.5469 73.454 -25.9449 -8.48425 30.1591 3.65189 
54.4997 82.7104 3.76765 -3.09308 10.7706 2.64913 -0.18285 0.261835 -0.267188 -0.359995 4.52727 -0.509407 -0.354457 6.17229 -0.503971 3.08957 -24.3316 -0.952947 1.64808 9.90334 -1.15591 79.2776 -1.92115 -3.08812 94.1493 33.3844 18.7265 -7.88026e-008 3.279e-007 -9.93793e-007 5.09545 0.0397529 -1.23742 2.37241e-006 7.10583e-006 -3.04349 8.02962 -4.95143 0.697654 -63.3532 -9.8655 6.15979 -114.368 31.3492 -11.0391 2.44073e-006 1.50515e-006 -2.52269e-006 0.633471 0.385462 0.832749 -5.01597e-006 -4.52536e-006 3.00496 -8.03016 -4.95141 -0.697632 -174.526 48.6709 -1.22393 180 1.52546e-005 178.653 172.752 53.5951 -178.167 -2.90724e-006 -8.30022e-006 1.22999 -33.0188 73.6394 27.3608 8.48349 30.2298 -3.63638 -179.836 51.1103 0.789695 4.57705e-006 1.05463e-005 -1.14126 0.188881 -55.4504 2.25331 -2.32998e-006 -5.42651e-006 -1.32107 26.4077 73.3647 -25.8037 -8.4868 30.1904 3.65434 
54.5176 82.8738 3.92134 -3.05604 10.6665 2.67337 -0.183313 0.237723 -0.261774 -0.360306 4.47902 -0.498643 -0.354895 6.12405 -0.493185 2.9262 -23.9704 -1.02497 1.71264 9.82509 -1.20509 79.2274 -1.94176 -3.09191 94.1539 33.2607 18.7234 -7.88026e-008 3.279e-007 -9.93793e-007 5.11226 0.039974 -1.237 2.37241e-006 7.10583e-006 -3.0434 8.02962 -4.95143 0.697654 -63.3943 -9.8401 6.14518 -114.326 31.2766 -11.0499 2.44073e-006 1.50515e-006 -2.52269e-006 0.594029 0.364086 0.832526 -5.01597e-006 -4.52536e-006 3.00494 -8.03016 -4.95141 -0.697632 -174.582 48.2369 -1.24988 180 1.52546e-005 178.657 172.81 53.2019 -178.207 -2.90724e-006 -8.30022e-006 1.21804 -32.8569 73.5695 27.2219 8.48462 30.257 -3.62565 -179.903 50.6749 0.891176 4.57705e-006 1.05463e-005 -1.13938 0.125679 -55.0535 2.19805 -2.32998e-006 -5.42651e-006 -1.30567 26.2707 73.2754 -25.6644 -8.48924 30.2203 3.65682 
54.5332 83.0377 4.05497 -3.01869 10.5594 2.69876 -0.183844 0.21381 -0.256292 -0.360727 4.43118 -0.487769 -0.355443 6.07621 -0.482286 2.76483 -23.6028 -1.096 1.77744 9.74497 -1.25429 79.1783 -1.96286 -3.09601 94.1567 33.1357 18.7202 -7.88026e-008 3.279e-007 -9.93793e-007 5.12988 0.0402016 -1.23657 2.37241e-006 7.10583e-006 -3.0433 8.02962 -4.95143 0.697654 -63.4343 -9.81507 6.13085 -114.285 31.2033 -11.0598 2.44073e-006 1.50515e-006 -2.52269e-006 0.554732 0.343224 0.832288 -5.01597e-006 -4.52536e-006 3.00492 -8.03016 -4.95141 -0.697632 -174.638 47.7995 -1.27397 180 1.52546e-005 178.662 172.867 52.8084 -178.246 -2.90724e-006 -8.30022e-006 1.20617 -32.6955 73.4994 27.084 8.48577 30.2839 -3.61546 -179.97 50.2353 0.992647 4.57705e-006 1.05463e-005 -1.13759 0.0646454 -54.6546 2.14454 -2.32998e-006 -5.42651e-006 -1.29032 26.1364 73.1866 -25.5273 -8.49156 30.2489 3.65927 
